HIERARCHY
ROOT Hips
{
  OFFSET -0.059 42.424 -218.824
  CHANNELS 6 Xposition Yposition Zposition Zrotation Xrotation Yrotation
  JOINT LeftUpLeg
  {
    OFFSET 6.923 -4.470 4.895
    CHANNELS 6 Xposition Yposition Zposition Zrotation Xrotation Yrotation
    JOINT LeftLeg
    {
      OFFSET -0.000 -46.673 0.000
      CHANNELS 6 Xposition Yposition Zposition Zrotation Xrotation Yrotation
      JOINT LeftFoot
      {
        OFFSET -0.000 -39.371 -0.000
        CHANNELS 6 Xposition Yposition Zposition Zrotation Xrotation Yrotation
        End Site
        {
          OFFSET 0.000 -8.191 4.729
        }
      }
    }
  }
  JOINT RightUpLeg
  {
    OFFSET -6.950 -4.479 4.897
    CHANNELS 6 Xposition Yposition Zposition Zrotation Xrotation Yrotation
    JOINT RightLeg
    {
      OFFSET 0.000 -47.137 0.000
      CHANNELS 6 Xposition Yposition Zposition Zrotation Xrotation Yrotation
      JOINT RightFoot
      {
        OFFSET -0.000 -39.462 -0.000
        CHANNELS 6 Xposition Yposition Zposition Zrotation Xrotation Yrotation
        End Site
        {
          OFFSET 0.000 -7.692 4.441
        }
      }
    }
  }
  JOINT Spine
  {
    OFFSET 0.000 4.321 -4.321
    CHANNELS 6 Xposition Yposition Zposition Zrotation Xrotation Yrotation
    JOINT LeftShoulder
    {
      OFFSET -0.000 27.303 0.000
      CHANNELS 6 Xposition Yposition Zposition Zrotation Xrotation Yrotation
      JOINT LeftArm
      {
        OFFSET 14.921 0.000 -0.000
        CHANNELS 6 Xposition Yposition Zposition Zrotation Xrotation Yrotation
        JOINT LeftForeArm
        {
          OFFSET 19.979 0.000 0.000
          CHANNELS 6 Xposition Yposition Zposition Zrotation Xrotation Yrotation
          JOINT LeftHand
          {
            OFFSET 23.546 -0.000 -0.000
            CHANNELS 6 Xposition Yposition Zposition Zrotation Xrotation Yrotation
            JOINT LeftHandThumb1
            {
            OFFSET 4.970 -0.620 3.390
            CHANNELS 6 Xposition Yposition Zposition Zrotation Xrotation Yrotation
              JOINT LeftHandThumb2
              {
              OFFSET 2.150 -0.000 0.000
              CHANNELS 6 Xposition Yposition Zposition Zrotation Xrotation Yrotation
                JOINT LeftHandThumb3
                {
                OFFSET 2.200 -0.000 0.000
                CHANNELS 6 Xposition Yposition Zposition Zrotation Xrotation Yrotation
                  JOINT LeftHandThumb4
                  {
                  OFFSET 1.700 -0.000 0.000
                  CHANNELS 6 Xposition Yposition Zposition Zrotation Xrotation Yrotation
                  }
                }
              }
            }
            JOINT LeftHandIndex1
            {
            OFFSET 8.730 0.680 2.070
            CHANNELS 6 Xposition Yposition Zposition Zrotation Xrotation Yrotation
              JOINT LeftHandIndex2
              {
              OFFSET 2.670 -0.000 0.000
              CHANNELS 6 Xposition Yposition Zposition Zrotation Xrotation Yrotation
                JOINT LeftHandIndex3
                {
                OFFSET 2.130 -0.000 0.000
                CHANNELS 6 Xposition Yposition Zposition Zrotation Xrotation Yrotation
                  JOINT LeftHandIndex4
                  {
                  OFFSET 1.800 -0.000 0.000
                  CHANNELS 6 Xposition Yposition Zposition Zrotation Xrotation Yrotation
                  }
                }
              }
            }
            JOINT LeftHandMiddle1
            {
            OFFSET 9.220 0.670 0.550
            CHANNELS 6 Xposition Yposition Zposition Zrotation Xrotation Yrotation
              JOINT LeftHandMiddle2
              {
              OFFSET 2.660 -0.000 0.000
              CHANNELS 6 Xposition Yposition Zposition Zrotation Xrotation Yrotation
                JOINT LeftHandMiddle3
                {
                OFFSET 2.280 -0.000 0.000
                CHANNELS 6 Xposition Yposition Zposition Zrotation Xrotation Yrotation
                  JOINT LeftHandMiddle4
                  {
                  OFFSET 1.500 -0.000 0.000
                  CHANNELS 6 Xposition Yposition Zposition Zrotation Xrotation Yrotation
                  }
                }
              }
            }
            JOINT LeftHandRing1
            {
            OFFSET 9.250 0.670 -1.130
            CHANNELS 6 Xposition Yposition Zposition Zrotation Xrotation Yrotation
              JOINT LeftHandRing2
              {
              OFFSET 2.470 -0.000 0.000
              CHANNELS 6 Xposition Yposition Zposition Zrotation Xrotation Yrotation
                JOINT LeftHandRing3
                {
                OFFSET 2.210 -0.000 0.000
                CHANNELS 6 Xposition Yposition Zposition Zrotation Xrotation Yrotation
                  JOINT LeftHandRing4
                  {
                  OFFSET 1.800 -0.000 0.000
                  CHANNELS 6 Xposition Yposition Zposition Zrotation Xrotation Yrotation
                  }
                }
              }
            }
            JOINT LeftHandPinky1
            {
            OFFSET 9.350 0.660 -2.720
            CHANNELS 6 Xposition Yposition Zposition Zrotation Xrotation Yrotation
              JOINT LeftHandPinky2
              {
              OFFSET 1.630 -0.000 0.000
              CHANNELS 6 Xposition Yposition Zposition Zrotation Xrotation Yrotation
                JOINT LeftHandPinky3
                {
                OFFSET 1.710 -0.000 0.000
                CHANNELS 6 Xposition Yposition Zposition Zrotation Xrotation Yrotation
                  JOINT LeftHandPinky4
                  {
                  OFFSET 1.800 -0.000 0.000
                  CHANNELS 6 Xposition Yposition Zposition Zrotation Xrotation Yrotation
                  }
                }
              }
            }
          }
        }
      }
    }
    JOINT RightShoulder
    {
      OFFSET -0.000 27.303 0.000
      CHANNELS 6 Xposition Yposition Zposition Zrotation Xrotation Yrotation
      JOINT RightArm
      {
        OFFSET -15.095 0.000 -0.000
        CHANNELS 6 Xposition Yposition Zposition Zrotation Xrotation Yrotation
        JOINT RightForeArm
        {
          OFFSET -20.097 0.000 0.000
          CHANNELS 6 Xposition Yposition Zposition Zrotation Xrotation Yrotation
          JOINT RightHand
          {
            OFFSET -22.411 0.000 -0.000
            CHANNELS 6 Xposition Yposition Zposition Zrotation Xrotation Yrotation
            JOINT RightHandThumb1
            {
            OFFSET -4.970 -0.620 3.390
            CHANNELS 6 Xposition Yposition Zposition Zrotation Xrotation Yrotation
              JOINT RightHandThumb2
              {
              OFFSET -2.150 0.000 0.000
              CHANNELS 6 Xposition Yposition Zposition Zrotation Xrotation Yrotation
                JOINT RightHandThumb3
                {
                OFFSET -2.200 0.000 0.000
                CHANNELS 6 Xposition Yposition Zposition Zrotation Xrotation Yrotation
                  JOINT RightHandThumb4
                  {
                  OFFSET -1.700 0.000 0.000
                  CHANNELS 6 Xposition Yposition Zposition Zrotation Xrotation Yrotation
                  }
                }
              }
            }
            JOINT RightHandIndex1
            {
            OFFSET -8.730 0.680 2.070
            CHANNELS 6 Xposition Yposition Zposition Zrotation Xrotation Yrotation
              JOINT RightHandIndex2
              {
              OFFSET -2.670 0.000 0.000
              CHANNELS 6 Xposition Yposition Zposition Zrotation Xrotation Yrotation
                JOINT RightHandIndex3
                {
                OFFSET -2.130 0.000 0.000
                CHANNELS 6 Xposition Yposition Zposition Zrotation Xrotation Yrotation
                  JOINT RightHandIndex4
                  {
                  OFFSET -1.800 0.000 0.000
                  CHANNELS 6 Xposition Yposition Zposition Zrotation Xrotation Yrotation
                  }
                }
              }
            }
            JOINT RightHandMiddle1
            {
            OFFSET -9.220 0.670 0.550
            CHANNELS 6 Xposition Yposition Zposition Zrotation Xrotation Yrotation
              JOINT RightHandMiddle2
              {
              OFFSET -2.660 0.000 0.000
              CHANNELS 6 Xposition Yposition Zposition Zrotation Xrotation Yrotation
                JOINT RightHandMiddle3
                {
                OFFSET -2.280 0.000 0.000
                CHANNELS 6 Xposition Yposition Zposition Zrotation Xrotation Yrotation
                  JOINT RightHandMiddle4
                  {
                  OFFSET -1.500 0.000 0.000
                  CHANNELS 6 Xposition Yposition Zposition Zrotation Xrotation Yrotation
                  }
                }
              }
            }
            JOINT RightHandRing1
            {
            OFFSET -9.250 0.670 -1.130
            CHANNELS 6 Xposition Yposition Zposition Zrotation Xrotation Yrotation
              JOINT RightHandRing2
              {
              OFFSET -2.470 0.000 0.000
              CHANNELS 6 Xposition Yposition Zposition Zrotation Xrotation Yrotation
                JOINT RightHandRing3
                {
                OFFSET -2.210 0.000 0.000
                CHANNELS 6 Xposition Yposition Zposition Zrotation Xrotation Yrotation
                  JOINT RightHandRing4
                  {
                  OFFSET -1.800 0.000 0.000
                  CHANNELS 6 Xposition Yposition Zposition Zrotation Xrotation Yrotation
                  }
                }
              }
            }
            JOINT RightHandPinky1
            {
            OFFSET -9.350 0.660 -2.720
            CHANNELS 6 Xposition Yposition Zposition Zrotation Xrotation Yrotation
              JOINT RightHandPinky2
              {
              OFFSET -1.630 0.000 0.000
              CHANNELS 6 Xposition Yposition Zposition Zrotation Xrotation Yrotation
                JOINT RightHandPinky3
                {
                OFFSET -1.710 0.000 0.000
                CHANNELS 6 Xposition Yposition Zposition Zrotation Xrotation Yrotation
                  JOINT RightHandPinky4
                  {
                  OFFSET -1.800 0.000 0.000
                  CHANNELS 6 Xposition Yposition Zposition Zrotation Xrotation Yrotation
                  }
                }
              }
            }
          }
        }
      }
    }
    JOINT Neck
    {
      OFFSET -0.000 27.303 0.000
      CHANNELS 6 Xposition Yposition Zposition Zrotation Xrotation Yrotation
      JOINT Head
      {
        OFFSET -0.000 17.795 -0.000
        CHANNELS 6 Xposition Yposition Zposition Zrotation Xrotation Yrotation
        End Site
        {
          OFFSET -0.000 0.071 -0.000
        }
      }
    }
  }
}
MOTION
Frames:	4
Frame Time:	0.0333333
-0.651809 48.5264 -218.384 15.1859 62.8459 -22.5314 8.03179 -5.08019 4.25432 84.4538 -71.5689 89.3129 2.98023e-06 -38.317 0 -15.7606 78.94 3.33788e-05 3.72529e-07 -41.2894 -3.57628e-05 7.46531 -57.3113 7.84533 -8.70595 -2.85242 4.88832 65.272 -82.4616 72.797 0 -38.7128 1.19209e-05 -35.1305 80.5946 29.7425 1.49012e-06 -33.9925 -2.38419e-05 -3.46765 -47.8188 -2.88029 5.96046e-06 3.38631 -3.38631 -4.36204 -48.6316 -2.69368 -2.98023e-06 27.303 7.15256e-05 -31.0046 1.70755e-05 14.6427 12.0663 -5.96046e-06 -2.38419e-05 64.3483 -23.3206 36.6437 18.6792 -2.98023e-05 3.57628e-05 1.04814e-05 -6.7007e-06 -140.762 24.8982 2.38419e-05 -2.98023e-06 12.3204 0.407516 3.7137 0.0062 0.0497 0.0339 0 0 0 0 0.0215 0 0 0 0 0 0.022 0 0 0 0 0 0.017 0 0 0 0 -0.0068 0.0873 0.0207 0 0 0 0 0.0267 0 0 0 0 0 0.0213 0 0 0 0 0 0.018 0 0 0 0 -0.0067 0.0922 0.0055 0 0 0 0 0.0266 0 0 0 0 0 0.0228 0 0 0 0 0 0.015 0 0 0 0 -0.0067 0.0925 -0.0113 0 0 0 0 0.0247 0 0 0 0 0 0.0221 0 0 0 0 0 0.018 0 0 0 0 -0.0066 0.0935 -0.0272 0 0 0 0 0.0163 0 0 0 0 0 0.0171 0 0 0 0 0 0.018 0 0 0 0 -2.98023e-06 27.303 7.15256e-05 10.1725 5.97642e-06 -9.8446 -17.8401 1.19209e-05 -7.15256e-05 -38.7951 -41.8643 2.9397 -19.6863 -1.19209e-05 -1.19209e-05 1.34129e-05 1.25877e-05 124.345 -23.7135 0 -3.27826e-05 41.26 1.11297 22.1082 -0.0062 0.0497 0.0339 0 0 0 0 0.0215 0 0 0 0 0 0.022 0 0 0 0 0 0.017 0 0 0 0 0.0068 0.0873 0.0207 0 0 0 0 0.0267 0 0 0 0 0 0.0213 0 0 0 0 0 0.018 0 0 0 0 0.0067 0.0922 0.0055 0 0 0 0 0.0266 0 0 0 0 0 0.0228 0 0 0 0 0 0.015 0 0 0 0 0.0067 0.0925 -0.0113 0 0 0 0 0.0247 0 0 0 0 0 0.0221 0 0 0 0 0 0.018 0 0 0 0 0.0066 0.0935 -0.0272 0 0 0 0 0.0163 0 0 0 0 0 0.0171 0 0 0 0 0 0.018 0 0 0 0 -2.98023e-06 27.303 7.15256e-05 12.766 -11.2728 2.536 -2.98023e-06 10.5221 -2.38419e-05 1.12058e-05 -1.13125e-05 0 
-0.683413 48.7268 -218.565 18.8244 63.6034 -26.8589 8.0132 -5.24387 3.90296 103.495 -69.0052 110.679 -5.96046e-06 -38.3274 0 -13.733 88.3348 0.000146907 5.21541e-06 -41.7307 1.19209e-05 6.54536 -60.3318 6.88121 -8.26756 -2.44637 5.4872 129.789 -79.4167 142.964 -7.45058e-07 -38.7032 0 178.805 86.4714 180 2.98023e-06 -36.9347 0 -1.67366 -51.4747 -1.06434 -2.98023e-06 3.05349 -3.05349 -2.22136 -48.4524 -1.45349 -5.96046e-06 27.303 0 -33.7584 1.02453e-05 19.016 12.1785 2.38419e-05 2.38419e-05 65.3293 -26.8978 35.4691 19.4623 -5.96046e-06 0 1.41225e-05 -6.70183e-06 -140.773 24.9777 5.96046e-06 5.96046e-06 11.6038 0.367428 4.39064 0.0062 0.0497 0.0339 -13.3636 0 0 0 0.0215 0 0 -13.3636 0 0 0.022 0 0 -13.3636 0 0 0.017 0 0 0 0 -0.0068 0.0873 0.0207 -13.3636 0 0 0 0.0267 0 -23.7576 0 0 0 0.0213 0 -26.7272 0 0 0 0.018 0 0 0 0 -0.0067 0.0922 0.0055 -13.3636 0 0 0 0.0266 0 -23.7576 0 0 0 0.0228 0 -26.7272 0 0 0 0.015 0 0 0 0 -0.0067 0.0925 -0.0113 -13.3636 0 0 0 0.0247 0 -23.7576 0 0 0 0.0221 0 -26.7272 0 0 0 0.018 0 0 0 0 -0.0066 0.0935 -0.0272 -13.3636 0 0 0 0.0163 0 -23.7576 0 0 0 0.0171 0 -26.7272 0 0 0 0.018 0 0 0 0 -5.96046e-06 27.303 0 18.0563 0 -12.6334 -18.1431 -1.19209e-05 0 -51.2451 -40.3717 7.50714 -20.4886 -5.96046e-06 2.38419e-05 1.00854e-05 1.2114e-05 122.884 -23.6351 2.38419e-05 -1.78814e-05 39.08 1.58113 25.8825 -0.0062 0.0497 0.0339 0 0 0 0 0.0215 0 0 0 0 0 0.022 0 0 0 0 0 0.017 0 0 0 0 0.0068 0.0873 0.0207 0 0 0 0 0.0267 0 0 0 0 0 0.0213 0 0 0 0 0 0.018 0 0 0 0 0.0067 0.0922 0.0055 0 0 0 0 0.0266 0 0 0 0 0 0.0228 0 0 0 0 0 0.015 0 0 0 0 0.0067 0.0925 -0.0113 0 0 0 0 0.0247 0 0 0 0 0 0.0221 0 0 0 0 0 0.018 0 0 0 0 0.0066 0.0935 -0.0272 0 0 0 0 0.0163 0 0 0 0 0 0.0171 0 0 0 0 0 0.018 0 0 0 0 -5.96046e-06 27.303 0 8.70294 -15.9497 2.40866 2.98023e-06 9.76585 0 1.0362e-05 -1.07389e-05 0 
-0.620031 49.3787 -218.946 -7.62991 62.8425 3.30985 8.43683 -3.94323 4.30634 111.908 -77.5177 106.528 5.96046e-06 -39.0259 0 -9.97939 81.8929 3.32975e-05 -6.33299e-06 -42.3492 0 6.48082 -62.9801 6.97573 -8.20935 -4.33644 4.63011 177.878 -86.3671 178.706 1.49012e-06 -39.3648 -2.38419e-05 0.759261 86.6093 8.66132e-05 -2.6077e-06 -38.7836 3.57628e-05 0.991256 -51.1546 1.55079 1.11759e-06 3.43711 -3.43709 0.899913 -44.9725 0.638601 -2.32831e-06 27.303 0 -10.726 6.83019e-06 25.2668 13.0994 -4.47035e-06 0 9.79821 -7.63804 1.14524 16.7515 -1.04308e-05 0 -1.72134e-05 -6.98951e-06 -143.892 25.1017 2.38419e-05 -1.19209e-05 13.0821 0.325511 5.86016 0.0062 0.0497 0.0339 -31.8906 0 0 0 0.0215 0 0 -31.8906 0 0 0.022 0 0 -31.8906 0 0 0.017 0 0 0 0 -0.0068 0.0873 0.0207 -31.8906 0 0 0 0.0267 0 -56.6943 0 0 0 0.0213 0 -63.7811 0 0 0 0.018 0 0 0 0 -0.0067 0.0922 0.0055 -31.8906 0 0 0 0.0266 0 -56.6943 0 0 0 0.0228 0 -63.7811 0 0 0 0.015 0 0 0 0 -0.0067 0.0925 -0.0113 -31.8906 0 0 0 0.0247 0 -56.6943 0 0 0 0.0221 0 -63.7811 0 0 0 0.018 0 0 0 0 -0.0066 0.0935 -0.0272 -31.8906 0 0 0 0.0163 0 -56.6943 0 0 0 0.0171 0 -63.7811 0 0 0 0.018 0 0 0 0 -2.32831e-06 27.303 0 17.5868 0 -19.6779 -16.6045 -1.49012e-06 -4.76837e-05 -39.7446 -18.2494 0.063574 -19.2989 -4.47035e-06 2.38419e-05 7.64961e-06 1.52346e-05 133.063 -24.4329 1.63913e-05 -5.96046e-06 28.8208 0.997676 25.4847 -0.0062 0.0497 0.0339 0 0 0 0 0.0215 0 0 0 0 0 0.022 0 0 0 0 0 0.017 0 0 0 0 0.0068 0.0873 0.0207 0 0 0 0 0.0267 0 0 0 0 0 0.0213 0 0 0 0 0 0.018 0 0 0 0 0.0067 0.0922 0.0055 0 0 0 0 0.0266 0 0 0 0 0 0.0228 0 0 0 0 0 0.015 0 0 0 0 0.0067 0.0925 -0.0113 0 0 0 0 0.0247 0 0 0 0 0 0.0221 0 0 0 0 0 0.018 0 0 0 0 0.0066 0.0935 -0.0272 0 0 0 0 0.0163 0 0 0 0 0 0.0171 0 0 0 0 0 0.018 0 0 0 0 -2.32831e-06 27.303 0 9.7404 -16.1156 2.72799 -2.98023e-06 9.58346 0 8.58776e-06 -1.15259e-05 0 
-0.620031 49.3787 -218.946 -7.62991 62.8425 3.30985 8.43683 -3.94323 4.30634 111.908 -77.5177 106.528 5.96046e-06 -39.0259 0 -9.97939 81.8929 3.32975e-05 -6.33299e-06 -42.3492 0 6.48082 -62.9801 6.97573 -8.20935 -4.33644 4.63011 177.878 -86.3671 178.706 1.49012e-06 -39.3648 -2.38419e-05 0.759261 86.6093 8.66132e-05 -2.6077e-06 -38.7836 3.57628e-05 0.991256 -51.1546 1.55079 1.11759e-06 3.43711 -3.43709 0.899913 -44.9725 0.638601 -2.32831e-06 27.303 0 -10.726 6.83019e-06 25.2668 13.0994 -4.47035e-06 0 9.79821 -7.63804 1.14524 16.7515 -1.04308e-05 0 -1.72134e-05 -6.98951e-06 -143.892 25.1017 2.38419e-05 -1.19209e-05 13.0821 0.325511 5.86016 0.0062 0.0497 0.0339 -31.8906 0 0 0 0.0215 0 0 -31.8906 0 0 0.022 0 0 -31.8906 0 0 0.017 0 0 0 0 -0.0068 0.0873 0.0207 -31.8906 0 0 0 0.0267 0 -56.6943 0 0 0 0.0213 0 -63.7811 0 0 0 0.018 0 0 0 0 -0.0067 0.0922 0.0055 -31.8906 0 0 0 0.0266 0 -56.6943 0 0 0 0.0228 0 -63.7811 0 0 0 0.015 0 0 0 0 -0.0067 0.0925 -0.0113 -31.8906 0 0 0 0.0247 0 -56.6943 0 0 0 0.0221 0 -63.7811 0 0 0 0.018 0 0 0 0 -0.0066 0.0935 -0.0272 -31.8906 0 0 0 0.0163 0 -56.6943 0 0 0 0.0171 0 -63.7811 0 0 0 0.018 0 0 0 0 -2.32831e-06 27.303 0 17.5868 0 -19.6779 -16.6045 -1.49012e-06 -4.76837e-05 -39.7446 -18.2494 0.063574 -19.2989 -4.47035e-06 2.38419e-05 7.64961e-06 1.52346e-05 133.063 -24.4329 1.63913e-05 -5.96046e-06 28.8208 0.997676 25.4847 -0.0062 0.0497 0.0339 0 0 0 0 0.0215 0 0 0 0 0 0.022 0 0 0 0 0 0.017 0 0 0 0 0.0068 0.0873 0.0207 0 0 0 0 0.0267 0 0 0 0 0 0.0213 0 0 0 0 0 0.018 0 0 0 0 0.0067 0.0922 0.0055 0 0 0 0 0.0266 0 0 0 0 0 0.0228 0 0 0 0 0 0.015 0 0 0 0 0.0067 0.0925 -0.0113 0 0 0 0 0.0247 0 0 0 0 0 0.0221 0 0 0 0 0 0.018 0 0 0 0 0.0066 0.0935 -0.0272 0 0 0 0 0.0163 0 0 0 0 0 0.0171 0 0 0 0 0 0.018 0 0 0 0 -2.32831e-06 27.303 0 9.7404 -16.1156 2.72799 -2.98023e-06 9.58346 0 8.58776e-06 -1.15259e-05 0 
